<svg height="511pt" viewBox="1 -95 511.99999 511" width="511pt" xmlns="http://www.w3.org/2000/svg"><path d="m0 32.5v256c0 8.835938 7.164062 16 16 16h448c8.835938 0 16-7.164062 16-16v-256l-240 112zm0 0" fill="#bddbff"/><path d="m480 16.5h-448c-8.835938 0-16 7.164062-16 16l240 112 240-112c0-8.835938-7.164062-16-16-16zm0 0" fill="#bddbff"/><path d="m512 32.117188c0-.210938 0-.386719 0-.59375-.527344-17.289063-14.703125-31.03125-32-31.023438h-448c-17.261719.042969-31.378906 13.769531-31.9023438 31.023438v.59375c0 .207031-.0976562.253906-.0976562.382812v256c0 17.671875 14.328125 32 32 32h448c17.671875 0 32-14.328125 32-32v-256c0-.128906 0-.257812 0-.382812zm-53.839844.382812-202.160156 94.398438-202.160156-94.398438zm-426.160156 256v-230.878906l217.230469 101.375c4.292969 2.003906 9.246093 2.003906 13.539062 0l217.230469-101.375v230.878906zm0 0" fill="#3d9ae2"/></svg>